<svg width="350" height="150" viewBox="0 0 350 150" fill="none" xmlns="http://www.w3.org/2000/svg">
<rect width="350" height="150" rx="10" fill="#221C3D"/>
<path d="M24.19 63C23.706 63 23.332 62.8753 23.068 62.626C22.8187 62.362 22.694 61.988 22.694 61.504V48.986C22.694 48.502 22.8187 48.1353 23.068 47.886C23.332 47.622 23.706 47.49 24.19 47.49H29.47C30.5553 47.49 31.4793 47.6513 32.242 47.974C33.0047 48.2967 33.584 48.7587 33.98 49.36C34.3907 49.9613 34.596 50.68 34.596 51.516C34.596 52.4547 34.3247 53.2467 33.782 53.892C33.2393 54.5373 32.4987 54.97 31.56 55.19V54.86C32.6453 55.0213 33.4887 55.432 34.09 56.092C34.6913 56.752 34.992 57.61 34.992 58.666C34.992 60.0447 34.5227 61.1153 33.584 61.878C32.66 62.626 31.3693 63 29.712 63H24.19ZM25.4 60.866H29.36C30.3573 60.866 31.0907 60.6753 31.56 60.294C32.0293 59.898 32.264 59.3113 32.264 58.534C32.264 57.742 32.0293 57.1553 31.56 56.774C31.0907 56.3927 30.3573 56.202 29.36 56.202H25.4V60.866ZM25.4 54.068H28.986C29.954 54.068 30.6727 53.8847 31.142 53.518C31.626 53.1367 31.868 52.5793 31.868 51.846C31.868 51.1127 31.626 50.5627 31.142 50.196C30.6727 49.8147 29.954 49.624 28.986 49.624H25.4V54.068ZM42.8785 63.22C41.6612 63.22 40.6125 62.9927 39.7325 62.538C38.8525 62.0833 38.1705 61.438 37.6865 60.602C37.2172 59.766 36.9825 58.776 36.9825 57.632C36.9825 56.5173 37.2098 55.542 37.6645 54.706C38.1338 53.87 38.7718 53.2173 39.5785 52.748C40.3998 52.264 41.3312 52.022 42.3725 52.022C43.1352 52.022 43.8172 52.1467 44.4185 52.396C45.0345 52.6453 45.5552 53.0047 45.9805 53.474C46.4205 53.9433 46.7505 54.5153 46.9705 55.19C47.2052 55.85 47.3225 56.598 47.3225 57.434C47.3225 57.698 47.2272 57.9033 47.0365 58.05C46.8605 58.182 46.6038 58.248 46.2665 58.248H39.2045V56.664H45.3865L45.0345 56.994C45.0345 56.3193 44.9318 55.7547 44.7265 55.3C44.5358 54.8453 44.2498 54.5007 43.8685 54.266C43.5018 54.0167 43.0398 53.892 42.4825 53.892C41.8665 53.892 41.3385 54.0387 40.8985 54.332C40.4732 54.6107 40.1432 55.014 39.9085 55.542C39.6885 56.0553 39.5785 56.6713 39.5785 57.39V57.544C39.5785 58.7467 39.8572 59.6487 40.4145 60.25C40.9865 60.8367 41.8225 61.13 42.9225 61.13C43.3038 61.13 43.7292 61.086 44.1985 60.998C44.6825 60.8953 45.1372 60.7267 45.5625 60.492C45.8705 60.316 46.1418 60.2427 46.3765 60.272C46.6112 60.2867 46.7945 60.3673 46.9265 60.514C47.0732 60.6607 47.1612 60.844 47.1905 61.064C47.2198 61.2693 47.1758 61.482 47.0585 61.702C46.9558 61.922 46.7725 62.1127 46.5085 62.274C45.9952 62.5967 45.4012 62.8387 44.7265 63C44.0665 63.1467 43.4505 63.22 42.8785 63.22ZM53.1743 63.22C51.957 63.22 51.0403 62.8753 50.4243 62.186C49.8083 61.482 49.5003 60.4553 49.5003 59.106V48.7C49.5003 48.2453 49.6176 47.9007 49.8523 47.666C50.087 47.4313 50.4243 47.314 50.8643 47.314C51.3043 47.314 51.6416 47.4313 51.8763 47.666C52.1256 47.9007 52.2503 48.2453 52.2503 48.7V58.974C52.2503 59.6487 52.3896 60.1473 52.6683 60.47C52.9616 60.7927 53.3723 60.954 53.9003 60.954C54.0176 60.954 54.1276 60.954 54.2303 60.954C54.333 60.9393 54.4356 60.9247 54.5383 60.91C54.7436 60.8807 54.883 60.9393 54.9563 61.086C55.0296 61.218 55.0663 61.4967 55.0663 61.922C55.0663 62.2887 54.993 62.5747 54.8463 62.78C54.6996 62.9853 54.4576 63.11 54.1203 63.154C53.9736 63.1687 53.8196 63.1833 53.6583 63.198C53.497 63.2127 53.3356 63.22 53.1743 63.22ZM61.7203 63.22C60.5029 63.22 59.4543 62.9927 58.5743 62.538C57.6943 62.0833 57.0123 61.438 56.5283 60.602C56.0589 59.766 55.8243 58.776 55.8243 57.632C55.8243 56.5173 56.0516 55.542 56.5063 54.706C56.9756 53.87 57.6136 53.2173 58.4203 52.748C59.2416 52.264 60.1729 52.022 61.2143 52.022C61.9769 52.022 62.6589 52.1467 63.2603 52.396C63.8763 52.6453 64.3969 53.0047 64.8223 53.474C65.2623 53.9433 65.5923 54.5153 65.8123 55.19C66.0469 55.85 66.1643 56.598 66.1643 57.434C66.1643 57.698 66.0689 57.9033 65.8783 58.05C65.7023 58.182 65.4456 58.248 65.1083 58.248H58.0463V56.664H64.2283L63.8763 56.994C63.8763 56.3193 63.7736 55.7547 63.5683 55.3C63.3776 54.8453 63.0916 54.5007 62.7103 54.266C62.3436 54.0167 61.8816 53.892 61.3243 53.892C60.7083 53.892 60.1803 54.0387 59.7403 54.332C59.3149 54.6107 58.9849 55.014 58.7503 55.542C58.5303 56.0553 58.4203 56.6713 58.4203 57.39V57.544C58.4203 58.7467 58.6989 59.6487 59.2563 60.25C59.8283 60.8367 60.6643 61.13 61.7643 61.13C62.1456 61.13 62.5709 61.086 63.0403 60.998C63.5243 60.8953 63.9789 60.7267 64.4043 60.492C64.7123 60.316 64.9836 60.2427 65.2183 60.272C65.4529 60.2867 65.6363 60.3673 65.7683 60.514C65.9149 60.6607 66.0029 60.844 66.0323 61.064C66.0616 61.2693 66.0176 61.482 65.9003 61.702C65.7976 61.922 65.6143 62.1127 65.3503 62.274C64.8369 62.5967 64.2429 62.8387 63.5683 63C62.9083 63.1467 62.2923 63.22 61.7203 63.22ZM68.8517 63C68.5731 63 68.3384 62.934 68.1477 62.802C67.9717 62.6553 67.8544 62.472 67.7957 62.252C67.7371 62.032 67.7371 61.7973 67.7957 61.548C67.8691 61.284 68.0084 61.0347 68.2137 60.8L73.9117 53.65V54.31H68.7197C68.3824 54.31 68.1184 54.222 67.9277 54.046C67.7517 53.8553 67.6637 53.5987 67.6637 53.276C67.6637 52.9387 67.7517 52.682 67.9277 52.506C68.1184 52.33 68.3824 52.242 68.7197 52.242H75.2317C75.5544 52.242 75.8184 52.3153 76.0237 52.462C76.2291 52.594 76.3611 52.77 76.4197 52.99C76.4931 53.21 76.5004 53.4447 76.4417 53.694C76.3831 53.9433 76.2511 54.178 76.0457 54.398L70.2377 61.658V60.932H75.7377C76.4417 60.932 76.7937 61.2767 76.7937 61.966C76.7937 62.2887 76.6984 62.5453 76.5077 62.736C76.3317 62.912 76.0751 63 75.7377 63H68.8517ZM82.0462 63.22C81.2689 63.22 80.5722 63.0733 79.9562 62.78C79.3549 62.472 78.8782 62.0613 78.5262 61.548C78.1889 61.0347 78.0202 60.4553 78.0202 59.81C78.0202 59.018 78.2256 58.3947 78.6362 57.94C79.0469 57.4707 79.7142 57.1333 80.6382 56.928C81.5622 56.7227 82.8016 56.62 84.3562 56.62H85.4562V58.204H84.3782C83.4689 58.204 82.7429 58.248 82.2002 58.336C81.6576 58.424 81.2689 58.578 81.0342 58.798C80.8142 59.0033 80.7042 59.2967 80.7042 59.678C80.7042 60.162 80.8729 60.558 81.2102 60.866C81.5476 61.174 82.0169 61.328 82.6182 61.328C83.1022 61.328 83.5276 61.218 83.8942 60.998C84.2756 60.7633 84.5762 60.448 84.7962 60.052C85.0162 59.656 85.1262 59.2013 85.1262 58.688V56.158C85.1262 55.4247 84.9649 54.8967 84.6422 54.574C84.3196 54.2513 83.7769 54.09 83.0142 54.09C82.5889 54.09 82.1269 54.1413 81.6282 54.244C81.1442 54.3467 80.6309 54.5227 80.0882 54.772C79.8096 54.904 79.5602 54.9407 79.3402 54.882C79.1349 54.8233 78.9736 54.706 78.8562 54.53C78.7389 54.3393 78.6802 54.134 78.6802 53.914C78.6802 53.694 78.7389 53.4813 78.8562 53.276C78.9736 53.056 79.1716 52.8947 79.4502 52.792C80.1249 52.5133 80.7702 52.3153 81.3862 52.198C82.0169 52.0807 82.5889 52.022 83.1022 52.022C84.1582 52.022 85.0236 52.1833 85.6982 52.506C86.3876 52.8287 86.9009 53.32 87.2382 53.98C87.5756 54.6253 87.7442 55.4613 87.7442 56.488V61.768C87.7442 62.2227 87.6342 62.5747 87.4142 62.824C87.1942 63.0587 86.8789 63.176 86.4682 63.176C86.0576 63.176 85.7349 63.0587 85.5002 62.824C85.2802 62.5747 85.1702 62.2227 85.1702 61.768V60.712H85.3462C85.2436 61.2253 85.0382 61.6727 84.7302 62.054C84.4369 62.4207 84.0629 62.7067 83.6082 62.912C83.1536 63.1173 82.6329 63.22 82.0462 63.22ZM101.48 63.22C100.351 63.22 99.3681 62.9927 98.5321 62.538C97.6961 62.0687 97.0508 61.4087 96.5961 60.558C96.1415 59.7073 95.9141 58.71 95.9141 57.566C95.9141 56.7007 96.0388 55.9307 96.2881 55.256C96.5521 54.5667 96.9261 53.9873 97.4101 53.518C97.8941 53.034 98.4808 52.6673 99.1701 52.418C99.8595 52.154 100.629 52.022 101.48 52.022C101.964 52.022 102.485 52.088 103.042 52.22C103.614 52.352 104.149 52.572 104.648 52.88C104.883 53.0267 105.037 53.2027 105.11 53.408C105.183 53.6133 105.198 53.826 105.154 54.046C105.11 54.2513 105.015 54.4347 104.868 54.596C104.736 54.7427 104.567 54.838 104.362 54.882C104.157 54.9113 103.929 54.86 103.68 54.728C103.357 54.5373 103.027 54.398 102.69 54.31C102.353 54.2073 102.03 54.156 101.722 54.156C101.238 54.156 100.813 54.2367 100.446 54.398C100.079 54.5447 99.7641 54.7647 99.5001 55.058C99.2508 55.3367 99.0601 55.6887 98.9281 56.114C98.7961 56.5393 98.7301 57.0307 98.7301 57.588C98.7301 58.6733 98.9868 59.5313 99.5001 60.162C100.028 60.778 100.769 61.086 101.722 61.086C102.03 61.086 102.345 61.042 102.668 60.954C103.005 60.866 103.343 60.7267 103.68 60.536C103.929 60.404 104.149 60.36 104.34 60.404C104.545 60.448 104.714 60.5507 104.846 60.712C104.978 60.8587 105.059 61.042 105.088 61.262C105.117 61.4673 105.088 61.6727 105 61.878C104.927 62.0833 104.78 62.252 104.56 62.384C104.076 62.6773 103.563 62.89 103.02 63.022C102.477 63.154 101.964 63.22 101.48 63.22ZM111.576 63.22C110.462 63.22 109.494 62.9927 108.672 62.538C107.851 62.0833 107.213 61.438 106.758 60.602C106.304 59.7513 106.076 58.754 106.076 57.61C106.076 56.7447 106.201 55.9747 106.45 55.3C106.714 54.6107 107.088 54.024 107.572 53.54C108.056 53.0413 108.636 52.6673 109.31 52.418C109.985 52.154 110.74 52.022 111.576 52.022C112.691 52.022 113.659 52.2493 114.48 52.704C115.302 53.1587 115.94 53.804 116.394 54.64C116.849 55.476 117.076 56.466 117.076 57.61C117.076 58.4753 116.944 59.2527 116.68 59.942C116.431 60.6313 116.064 61.2253 115.58 61.724C115.096 62.208 114.517 62.582 113.842 62.846C113.168 63.0953 112.412 63.22 111.576 63.22ZM111.576 61.13C112.119 61.13 112.596 60.998 113.006 60.734C113.417 60.47 113.732 60.0813 113.952 59.568C114.187 59.04 114.304 58.3873 114.304 57.61C114.304 56.4367 114.055 55.564 113.556 54.992C113.058 54.4053 112.398 54.112 111.576 54.112C111.034 54.112 110.557 54.244 110.146 54.508C109.736 54.7573 109.413 55.146 109.178 55.674C108.958 56.1873 108.848 56.8327 108.848 57.61C108.848 58.7687 109.098 59.6487 109.596 60.25C110.095 60.8367 110.755 61.13 111.576 61.13ZM120.754 63.176C120.314 63.176 119.977 63.0587 119.742 62.824C119.507 62.5747 119.39 62.2227 119.39 61.768V53.452C119.39 52.9973 119.507 52.6527 119.742 52.418C119.977 52.1833 120.307 52.066 120.732 52.066C121.157 52.066 121.487 52.1833 121.722 52.418C121.957 52.6527 122.074 52.9973 122.074 53.452V55.058L121.832 54.398C122.125 53.6647 122.58 53.0853 123.196 52.66C123.812 52.2347 124.545 52.022 125.396 52.022C126.261 52.022 126.973 52.2273 127.53 52.638C128.087 53.0487 128.476 53.6793 128.696 54.53H128.388C128.681 53.7527 129.165 53.144 129.84 52.704C130.515 52.2493 131.292 52.022 132.172 52.022C132.993 52.022 133.668 52.1833 134.196 52.506C134.739 52.8287 135.142 53.32 135.406 53.98C135.67 54.6253 135.802 55.4467 135.802 56.444V61.768C135.802 62.2227 135.677 62.5747 135.428 62.824C135.193 63.0587 134.856 63.176 134.416 63.176C133.976 63.176 133.639 63.0587 133.404 62.824C133.169 62.5747 133.052 62.2227 133.052 61.768V56.554C133.052 55.7327 132.913 55.1313 132.634 54.75C132.37 54.3687 131.915 54.178 131.27 54.178C130.551 54.178 129.987 54.4347 129.576 54.948C129.165 55.4467 128.96 56.1433 128.96 57.038V61.768C128.96 62.2227 128.843 62.5747 128.608 62.824C128.373 63.0587 128.036 63.176 127.596 63.176C127.156 63.176 126.811 63.0587 126.562 62.824C126.327 62.5747 126.21 62.2227 126.21 61.768V56.554C126.21 55.7327 126.071 55.1313 125.792 54.75C125.528 54.3687 125.081 54.178 124.45 54.178C123.731 54.178 123.167 54.4347 122.756 54.948C122.345 55.4467 122.14 56.1433 122.14 57.038V61.768C122.14 62.7067 121.678 63.176 120.754 63.176Z" fill="white"/>
<path d="M23.794 85.176C23.354 85.176 23.0167 85.0587 22.782 84.824C22.5473 84.5747 22.43 84.2227 22.43 83.768V70.7C22.43 70.2453 22.5473 69.9007 22.782 69.666C23.0167 69.4313 23.354 69.314 23.794 69.314C24.234 69.314 24.5713 69.4313 24.806 69.666C25.0553 69.9007 25.18 70.2453 25.18 70.7V76.398H24.872C25.1947 75.6207 25.6933 75.034 26.368 74.638C27.0573 74.2273 27.8347 74.022 28.7 74.022C29.5653 74.022 30.2767 74.1833 30.834 74.506C31.3913 74.8287 31.8093 75.32 32.088 75.98C32.3667 76.6253 32.506 77.4467 32.506 78.444V83.768C32.506 84.2227 32.3887 84.5747 32.154 84.824C31.9193 85.0587 31.582 85.176 31.142 85.176C30.702 85.176 30.3573 85.0587 30.108 84.824C29.8733 84.5747 29.756 84.2227 29.756 83.768V78.576C29.756 77.74 29.5947 77.1313 29.272 76.75C28.964 76.3687 28.48 76.178 27.82 76.178C27.0133 76.178 26.368 76.4347 25.884 76.948C25.4147 77.4467 25.18 78.114 25.18 78.95V83.768C25.18 84.7067 24.718 85.176 23.794 85.176ZM40.2051 85.22C39.0905 85.22 38.1225 84.9927 37.3011 84.538C36.4798 84.0833 35.8418 83.438 35.3871 82.602C34.9325 81.7513 34.7051 80.754 34.7051 79.61C34.7051 78.7447 34.8298 77.9747 35.0791 77.3C35.3431 76.6107 35.7171 76.024 36.2011 75.54C36.6851 75.0413 37.2645 74.6673 37.9391 74.418C38.6138 74.154 39.3691 74.022 40.2051 74.022C41.3198 74.022 42.2878 74.2493 43.1091 74.704C43.9305 75.1587 44.5685 75.804 45.0231 76.64C45.4778 77.476 45.7051 78.466 45.7051 79.61C45.7051 80.4753 45.5731 81.2527 45.3091 81.942C45.0598 82.6313 44.6931 83.2253 44.2091 83.724C43.7251 84.208 43.1458 84.582 42.4711 84.846C41.7965 85.0953 41.0411 85.22 40.2051 85.22ZM40.2051 83.13C40.7478 83.13 41.2245 82.998 41.6351 82.734C42.0458 82.47 42.3611 82.0813 42.5811 81.568C42.8158 81.04 42.9331 80.3873 42.9331 79.61C42.9331 78.4367 42.6838 77.564 42.1851 76.992C41.6865 76.4053 41.0265 76.112 40.2051 76.112C39.6625 76.112 39.1858 76.244 38.7751 76.508C38.3645 76.7573 38.0418 77.146 37.8071 77.674C37.5871 78.1873 37.4771 78.8327 37.4771 79.61C37.4771 80.7687 37.7265 81.6487 38.2251 82.25C38.7238 82.8367 39.3838 83.13 40.2051 83.13ZM49.3829 85.176C48.9283 85.176 48.5763 85.0587 48.3269 84.824C48.0923 84.5747 47.9749 84.2227 47.9749 83.768V75.452C47.9749 74.9973 48.0923 74.6527 48.3269 74.418C48.5616 74.1833 48.8916 74.066 49.3169 74.066C49.7423 74.066 50.0723 74.1833 50.3069 74.418C50.5416 74.6527 50.6589 74.9973 50.6589 75.452V76.838H50.4389C50.6443 75.958 51.0476 75.2907 51.6489 74.836C52.2503 74.3813 53.0496 74.11 54.0469 74.022C54.3549 73.9927 54.5969 74.0733 54.7729 74.264C54.9636 74.44 55.0736 74.7187 55.1029 75.1C55.1323 75.4667 55.0443 75.7673 54.8389 76.002C54.6483 76.222 54.3549 76.354 53.9589 76.398L53.4749 76.442C52.5803 76.53 51.9056 76.8087 51.4509 77.278C50.9963 77.7327 50.7689 78.378 50.7689 79.214V83.768C50.7689 84.2227 50.6516 84.5747 50.4169 84.824C50.1823 85.0587 49.8376 85.176 49.3829 85.176ZM60.0247 85.22C59.2474 85.22 58.5507 85.0733 57.9347 84.78C57.3334 84.472 56.8567 84.0613 56.5047 83.548C56.1674 83.0347 55.9987 82.4553 55.9987 81.81C55.9987 81.018 56.2041 80.3947 56.6147 79.94C57.0254 79.4707 57.6927 79.1333 58.6167 78.928C59.5407 78.7227 60.7801 78.62 62.3347 78.62H63.4347V80.204H62.3567C61.4474 80.204 60.7214 80.248 60.1787 80.336C59.6361 80.424 59.2474 80.578 59.0127 80.798C58.7927 81.0033 58.6827 81.2967 58.6827 81.678C58.6827 82.162 58.8514 82.558 59.1887 82.866C59.5261 83.174 59.9954 83.328 60.5967 83.328C61.0807 83.328 61.5061 83.218 61.8727 82.998C62.2541 82.7633 62.5547 82.448 62.7747 82.052C62.9947 81.656 63.1047 81.2013 63.1047 80.688V78.158C63.1047 77.4247 62.9434 76.8967 62.6207 76.574C62.2981 76.2513 61.7554 76.09 60.9927 76.09C60.5674 76.09 60.1054 76.1413 59.6067 76.244C59.1227 76.3467 58.6094 76.5227 58.0667 76.772C57.7881 76.904 57.5387 76.9407 57.3187 76.882C57.1134 76.8233 56.9521 76.706 56.8347 76.53C56.7174 76.3393 56.6587 76.134 56.6587 75.914C56.6587 75.694 56.7174 75.4813 56.8347 75.276C56.9521 75.056 57.1501 74.8947 57.4287 74.792C58.1034 74.5133 58.7487 74.3153 59.3647 74.198C59.9954 74.0807 60.5674 74.022 61.0807 74.022C62.1367 74.022 63.0021 74.1833 63.6767 74.506C64.3661 74.8287 64.8794 75.32 65.2167 75.98C65.5541 76.6253 65.7227 77.4613 65.7227 78.488V83.768C65.7227 84.2227 65.6127 84.5747 65.3927 84.824C65.1727 85.0587 64.8574 85.176 64.4467 85.176C64.0361 85.176 63.7134 85.0587 63.4787 84.824C63.2587 84.5747 63.1487 84.2227 63.1487 83.768V82.712H63.3247C63.2221 83.2253 63.0167 83.6727 62.7087 84.054C62.4154 84.4207 62.0414 84.7067 61.5867 84.912C61.1321 85.1173 60.6114 85.22 60.0247 85.22ZM75.8946 85.176C75.4546 85.176 75.1173 85.0587 74.8826 84.824C74.648 84.5747 74.5306 84.2227 74.5306 83.768V75.452C74.5306 74.9973 74.648 74.6527 74.8826 74.418C75.1173 74.1833 75.4473 74.066 75.8726 74.066C76.298 74.066 76.628 74.1833 76.8626 74.418C77.0973 74.6527 77.2146 74.9973 77.2146 75.452V77.058L76.9726 76.398C77.266 75.6647 77.7206 75.0853 78.3366 74.66C78.9526 74.2347 79.686 74.022 80.5366 74.022C81.402 74.022 82.1133 74.2273 82.6706 74.638C83.228 75.0487 83.6166 75.6793 83.8366 76.53H83.5286C83.822 75.7527 84.306 75.144 84.9806 74.704C85.6553 74.2493 86.4326 74.022 87.3126 74.022C88.134 74.022 88.8086 74.1833 89.3366 74.506C89.8793 74.8287 90.2826 75.32 90.5466 75.98C90.8106 76.6253 90.9426 77.4467 90.9426 78.444V83.768C90.9426 84.2227 90.818 84.5747 90.5686 84.824C90.334 85.0587 89.9966 85.176 89.5566 85.176C89.1166 85.176 88.7793 85.0587 88.5446 84.824C88.31 84.5747 88.1926 84.2227 88.1926 83.768V78.554C88.1926 77.7327 88.0533 77.1313 87.7746 76.75C87.5106 76.3687 87.056 76.178 86.4106 76.178C85.692 76.178 85.1273 76.4347 84.7166 76.948C84.306 77.4467 84.1006 78.1433 84.1006 79.038V83.768C84.1006 84.2227 83.9833 84.5747 83.7486 84.824C83.514 85.0587 83.1766 85.176 82.7366 85.176C82.2966 85.176 81.952 85.0587 81.7026 84.824C81.468 84.5747 81.3506 84.2227 81.3506 83.768V78.554C81.3506 77.7327 81.2113 77.1313 80.9326 76.75C80.6686 76.3687 80.2213 76.178 79.5906 76.178C78.872 76.178 78.3073 76.4347 77.8966 76.948C77.486 77.4467 77.2806 78.1433 77.2806 79.038V83.768C77.2806 84.7067 76.8186 85.176 75.8946 85.176ZM97.3216 85.22C96.5443 85.22 95.8476 85.0733 95.2316 84.78C94.6303 84.472 94.1536 84.0613 93.8016 83.548C93.4643 83.0347 93.2956 82.4553 93.2956 81.81C93.2956 81.018 93.5009 80.3947 93.9116 79.94C94.3223 79.4707 94.9896 79.1333 95.9136 78.928C96.8376 78.7227 98.0769 78.62 99.6316 78.62H100.732V80.204H99.6536C98.7443 80.204 98.0183 80.248 97.4756 80.336C96.9329 80.424 96.5443 80.578 96.3096 80.798C96.0896 81.0033 95.9796 81.2967 95.9796 81.678C95.9796 82.162 96.1483 82.558 96.4856 82.866C96.8229 83.174 97.2923 83.328 97.8936 83.328C98.3776 83.328 98.8029 83.218 99.1696 82.998C99.5509 82.7633 99.8516 82.448 100.072 82.052C100.292 81.656 100.402 81.2013 100.402 80.688V78.158C100.402 77.4247 100.24 76.8967 99.9176 76.574C99.5949 76.2513 99.0523 76.09 98.2896 76.09C97.8643 76.09 97.4023 76.1413 96.9036 76.244C96.4196 76.3467 95.9063 76.5227 95.3636 76.772C95.0849 76.904 94.8356 76.9407 94.6156 76.882C94.4103 76.8233 94.2489 76.706 94.1316 76.53C94.0143 76.3393 93.9556 76.134 93.9556 75.914C93.9556 75.694 94.0143 75.4813 94.1316 75.276C94.2489 75.056 94.4469 74.8947 94.7256 74.792C95.4003 74.5133 96.0456 74.3153 96.6616 74.198C97.2923 74.0807 97.8643 74.022 98.3776 74.022C99.4336 74.022 100.299 74.1833 100.974 74.506C101.663 74.8287 102.176 75.32 102.514 75.98C102.851 76.6253 103.02 77.4613 103.02 78.488V83.768C103.02 84.2227 102.91 84.5747 102.69 84.824C102.47 85.0587 102.154 85.176 101.744 85.176C101.333 85.176 101.01 85.0587 100.776 84.824C100.556 84.5747 100.446 84.2227 100.446 83.768V82.712H100.622C100.519 83.2253 100.314 83.6727 100.006 84.054C99.7123 84.4207 99.3383 84.7067 98.8836 84.912C98.4289 85.1173 97.9083 85.22 97.3216 85.22ZM107.219 85.176C106.764 85.176 106.412 85.0587 106.163 84.824C105.928 84.5747 105.811 84.2227 105.811 83.768V75.452C105.811 74.9973 105.928 74.6527 106.163 74.418C106.398 74.1833 106.728 74.066 107.153 74.066C107.578 74.066 107.908 74.1833 108.143 74.418C108.378 74.6527 108.495 74.9973 108.495 75.452V76.838H108.275C108.48 75.958 108.884 75.2907 109.485 74.836C110.086 74.3813 110.886 74.11 111.883 74.022C112.191 73.9927 112.433 74.0733 112.609 74.264C112.8 74.44 112.91 74.7187 112.939 75.1C112.968 75.4667 112.88 75.7673 112.675 76.002C112.484 76.222 112.191 76.354 111.795 76.398L111.311 76.442C110.416 76.53 109.742 76.8087 109.287 77.278C108.832 77.7327 108.605 78.378 108.605 79.214V83.768C108.605 84.2227 108.488 84.5747 108.253 84.824C108.018 85.0587 107.674 85.176 107.219 85.176ZM119.226 85.22C118.097 85.22 117.114 84.9927 116.278 84.538C115.442 84.0687 114.797 83.4087 114.342 82.558C113.888 81.7073 113.66 80.71 113.66 79.566C113.66 78.7007 113.785 77.9307 114.034 77.256C114.298 76.5667 114.672 75.9873 115.156 75.518C115.64 75.034 116.227 74.6673 116.916 74.418C117.606 74.154 118.376 74.022 119.226 74.022C119.71 74.022 120.231 74.088 120.788 74.22C121.36 74.352 121.896 74.572 122.394 74.88C122.629 75.0267 122.783 75.2027 122.856 75.408C122.93 75.6133 122.944 75.826 122.9 76.046C122.856 76.2513 122.761 76.4347 122.614 76.596C122.482 76.7427 122.314 76.838 122.108 76.882C121.903 76.9113 121.676 76.86 121.426 76.728C121.104 76.5373 120.774 76.398 120.436 76.31C120.099 76.2073 119.776 76.156 119.468 76.156C118.984 76.156 118.559 76.2367 118.192 76.398C117.826 76.5447 117.51 76.7647 117.246 77.058C116.997 77.3367 116.806 77.6887 116.674 78.114C116.542 78.5393 116.476 79.0307 116.476 79.588C116.476 80.6733 116.733 81.5313 117.246 82.162C117.774 82.778 118.515 83.086 119.468 83.086C119.776 83.086 120.092 83.042 120.414 82.954C120.752 82.866 121.089 82.7267 121.426 82.536C121.676 82.404 121.896 82.36 122.086 82.404C122.292 82.448 122.46 82.5507 122.592 82.712C122.724 82.8587 122.805 83.042 122.834 83.262C122.864 83.4673 122.834 83.6727 122.746 83.878C122.673 84.0833 122.526 84.252 122.306 84.384C121.822 84.6773 121.309 84.89 120.766 85.022C120.224 85.154 119.71 85.22 119.226 85.22ZM128.109 85.22C127.331 85.22 126.635 85.0733 126.019 84.78C125.417 84.472 124.941 84.0613 124.589 83.548C124.251 83.0347 124.083 82.4553 124.083 81.81C124.083 81.018 124.288 80.3947 124.699 79.94C125.109 79.4707 125.777 79.1333 126.701 78.928C127.625 78.7227 128.864 78.62 130.419 78.62H131.519V80.204H130.441C129.531 80.204 128.805 80.248 128.263 80.336C127.72 80.424 127.331 80.578 127.097 80.798C126.877 81.0033 126.767 81.2967 126.767 81.678C126.767 82.162 126.935 82.558 127.273 82.866C127.61 83.174 128.079 83.328 128.681 83.328C129.165 83.328 129.59 83.218 129.957 82.998C130.338 82.7633 130.639 82.448 130.859 82.052C131.079 81.656 131.189 81.2013 131.189 80.688V78.158C131.189 77.4247 131.027 76.8967 130.705 76.574C130.382 76.2513 129.839 76.09 129.077 76.09C128.651 76.09 128.189 76.1413 127.691 76.244C127.207 76.3467 126.693 76.5227 126.151 76.772C125.872 76.904 125.623 76.9407 125.403 76.882C125.197 76.8233 125.036 76.706 124.919 76.53C124.801 76.3393 124.743 76.134 124.743 75.914C124.743 75.694 124.801 75.4813 124.919 75.276C125.036 75.056 125.234 74.8947 125.513 74.792C126.187 74.5133 126.833 74.3153 127.449 74.198C128.079 74.0807 128.651 74.022 129.165 74.022C130.221 74.022 131.086 74.1833 131.761 74.506C132.45 74.8287 132.963 75.32 133.301 75.98C133.638 76.6253 133.807 77.4613 133.807 78.488V83.768C133.807 84.2227 133.697 84.5747 133.477 84.824C133.257 85.0587 132.941 85.176 132.531 85.176C132.12 85.176 131.797 85.0587 131.563 84.824C131.343 84.5747 131.233 84.2227 131.233 83.768V82.712H131.409C131.306 83.2253 131.101 83.6727 130.793 84.054C130.499 84.4207 130.125 84.7067 129.671 84.912C129.216 85.1173 128.695 85.22 128.109 85.22ZM140.734 85.22C139.795 85.22 138.967 84.9927 138.248 84.538C137.544 84.0833 136.994 83.438 136.598 82.602C136.202 81.7513 136.004 80.754 136.004 79.61C136.004 78.4513 136.202 77.4613 136.598 76.64C136.994 75.804 137.544 75.1587 138.248 74.704C138.967 74.2493 139.795 74.022 140.734 74.022C141.629 74.022 142.406 74.242 143.066 74.682C143.741 75.122 144.195 75.7013 144.43 76.42H144.188V70.7C144.188 70.2453 144.305 69.9007 144.54 69.666C144.775 69.4313 145.112 69.314 145.552 69.314C145.992 69.314 146.329 69.4313 146.564 69.666C146.813 69.9007 146.938 70.2453 146.938 70.7V83.768C146.938 84.2227 146.821 84.5747 146.586 84.824C146.351 85.0587 146.014 85.176 145.574 85.176C145.134 85.176 144.797 85.0587 144.562 84.824C144.327 84.5747 144.21 84.2227 144.21 83.768V82.052L144.452 82.712C144.232 83.4747 143.785 84.0833 143.11 84.538C142.435 84.9927 141.643 85.22 140.734 85.22ZM141.504 83.13C142.047 83.13 142.523 82.998 142.934 82.734C143.345 82.47 143.66 82.0813 143.88 81.568C144.115 81.04 144.232 80.3873 144.232 79.61C144.232 78.4367 143.983 77.564 143.484 76.992C142.985 76.4053 142.325 76.112 141.504 76.112C140.961 76.112 140.485 76.244 140.074 76.508C139.663 76.7573 139.341 77.146 139.106 77.674C138.886 78.1873 138.776 78.8327 138.776 79.61C138.776 80.7687 139.025 81.6487 139.524 82.25C140.023 82.8367 140.683 83.13 141.504 83.13ZM153.331 85.22C152.554 85.22 151.857 85.0733 151.241 84.78C150.64 84.472 150.163 84.0613 149.811 83.548C149.474 83.0347 149.305 82.4553 149.305 81.81C149.305 81.018 149.511 80.3947 149.921 79.94C150.332 79.4707 150.999 79.1333 151.923 78.928C152.847 78.7227 154.087 78.62 155.641 78.62H156.741V80.204H155.663C154.754 80.204 154.028 80.248 153.485 80.336C152.943 80.424 152.554 80.578 152.319 80.798C152.099 81.0033 151.989 81.2967 151.989 81.678C151.989 82.162 152.158 82.558 152.495 82.866C152.833 83.174 153.302 83.328 153.903 83.328C154.387 83.328 154.813 83.218 155.179 82.998C155.561 82.7633 155.861 82.448 156.081 82.052C156.301 81.656 156.411 81.2013 156.411 80.688V78.158C156.411 77.4247 156.25 76.8967 155.927 76.574C155.605 76.2513 155.062 76.09 154.299 76.09C153.874 76.09 153.412 76.1413 152.913 76.244C152.429 76.3467 151.916 76.5227 151.373 76.772C151.095 76.904 150.845 76.9407 150.625 76.882C150.42 76.8233 150.259 76.706 150.141 76.53C150.024 76.3393 149.965 76.134 149.965 75.914C149.965 75.694 150.024 75.4813 150.141 75.276C150.259 75.056 150.457 74.8947 150.735 74.792C151.41 74.5133 152.055 74.3153 152.671 74.198C153.302 74.0807 153.874 74.022 154.387 74.022C155.443 74.022 156.309 74.1833 156.983 74.506C157.673 74.8287 158.186 75.32 158.523 75.98C158.861 76.6253 159.029 77.4613 159.029 78.488V83.768C159.029 84.2227 158.919 84.5747 158.699 84.824C158.479 85.0587 158.164 85.176 157.753 85.176C157.343 85.176 157.02 85.0587 156.785 84.824C156.565 84.5747 156.455 84.2227 156.455 83.768V82.712H156.631C156.529 83.2253 156.323 83.6727 156.015 84.054C155.722 84.4207 155.348 84.7067 154.893 84.912C154.439 85.1173 153.918 85.22 153.331 85.22Z" fill="white"/>
<path d="M22.708 104.084C22.5773 104.084 22.4747 104.047 22.4 103.972C22.3253 103.888 22.288 103.776 22.288 103.636V94.578C22.288 94.4287 22.3253 94.3167 22.4 94.242C22.484 94.1673 22.5913 94.13 22.722 94.13H26.012C27.0573 94.13 27.86 94.3727 28.42 94.858C28.98 95.3433 29.26 96.034 29.26 96.93C29.26 97.5087 29.134 98.008 28.882 98.428C28.63 98.8387 28.2567 99.1513 27.762 99.366C27.2767 99.5807 26.6933 99.688 26.012 99.688L26.166 99.506H26.362C26.7167 99.506 27.0247 99.5993 27.286 99.786C27.5567 99.9727 27.7993 100.276 28.014 100.696L29.498 103.454C29.5633 103.557 29.5913 103.659 29.582 103.762C29.582 103.855 29.5493 103.935 29.484 104C29.4187 104.056 29.3347 104.084 29.232 104.084C29.1107 104.084 29.008 104.056 28.924 104C28.8493 103.944 28.784 103.865 28.728 103.762L27.16 100.836C26.9173 100.388 26.6467 100.094 26.348 99.954C26.0493 99.8047 25.648 99.73 25.144 99.73H23.142V103.636C23.142 103.776 23.1047 103.888 23.03 103.972C22.9647 104.047 22.8573 104.084 22.708 104.084ZM23.142 99.002H25.9C26.7307 99.002 27.3513 98.8293 27.762 98.484C28.182 98.1293 28.392 97.6113 28.392 96.93C28.392 96.258 28.182 95.7493 27.762 95.404C27.3513 95.0493 26.7307 94.872 25.9 94.872H23.142V99.002ZM34.1795 104.112C33.4795 104.112 32.8775 103.972 32.3735 103.692C31.8695 103.412 31.4821 103.011 31.2115 102.488C30.9408 101.965 30.8055 101.345 30.8055 100.626C30.8055 99.9167 30.9408 99.3007 31.2115 98.778C31.4821 98.246 31.8555 97.8307 32.3315 97.532C32.8168 97.2333 33.3721 97.084 33.9975 97.084C34.4548 97.084 34.8561 97.1633 35.2015 97.322C35.5561 97.4713 35.8548 97.6907 36.0975 97.98C36.3495 98.26 36.5408 98.6053 36.6715 99.016C36.8021 99.4173 36.8675 99.8747 36.8675 100.388C36.8675 100.519 36.8301 100.617 36.7555 100.682C36.6901 100.747 36.5968 100.78 36.4755 100.78H31.4215V100.15H36.3355L36.1115 100.332C36.1115 99.7907 36.0321 99.3333 35.8735 98.96C35.7148 98.5773 35.4768 98.2833 35.1595 98.078C34.8515 97.8727 34.4688 97.77 34.0115 97.77C33.4981 97.77 33.0641 97.8913 32.7095 98.134C32.3548 98.3673 32.0888 98.694 31.9115 99.114C31.7341 99.5247 31.6455 100.001 31.6455 100.542V100.612C31.6455 101.508 31.8648 102.199 32.3035 102.684C32.7421 103.16 33.3581 103.398 34.1515 103.398C34.4968 103.398 34.8281 103.351 35.1455 103.258C35.4721 103.165 35.7895 103.006 36.0975 102.782C36.1908 102.717 36.2795 102.684 36.3635 102.684C36.4568 102.684 36.5315 102.707 36.5875 102.754C36.6528 102.801 36.6948 102.861 36.7135 102.936C36.7415 103.001 36.7368 103.076 36.6995 103.16C36.6715 103.235 36.6108 103.305 36.5175 103.37C36.2188 103.613 35.8595 103.799 35.4395 103.93C35.0195 104.051 34.5995 104.112 34.1795 104.112ZM40.8203 104.112C40.4003 104.112 39.9803 104.056 39.5603 103.944C39.1496 103.832 38.7576 103.641 38.3843 103.37C38.3096 103.323 38.2583 103.267 38.2303 103.202C38.2116 103.127 38.2069 103.053 38.2163 102.978C38.2349 102.903 38.2676 102.843 38.3143 102.796C38.3703 102.74 38.4356 102.707 38.5103 102.698C38.5849 102.689 38.6643 102.712 38.7483 102.768C39.1123 103.011 39.4669 103.179 39.8123 103.272C40.1576 103.365 40.5029 103.412 40.8483 103.412C41.4176 103.412 41.8516 103.305 42.1503 103.09C42.4489 102.875 42.5983 102.586 42.5983 102.222C42.5983 101.923 42.5003 101.695 42.3043 101.536C42.1176 101.368 41.8096 101.233 41.3803 101.13L40.1623 100.85C39.5743 100.719 39.1403 100.509 38.8603 100.22C38.5803 99.9213 38.4403 99.5387 38.4403 99.072C38.4403 98.6707 38.5429 98.3207 38.7483 98.022C38.9629 97.7233 39.2616 97.4947 39.6443 97.336C40.0363 97.168 40.4843 97.084 40.9883 97.084C41.3989 97.084 41.7909 97.1447 42.1643 97.266C42.5376 97.3873 42.8643 97.574 43.1443 97.826C43.2189 97.882 43.2656 97.9473 43.2843 98.022C43.3123 98.0967 43.3123 98.1713 43.2843 98.246C43.2656 98.3113 43.2283 98.3673 43.1723 98.414C43.1163 98.4607 43.0509 98.484 42.9763 98.484C42.9016 98.484 42.8223 98.456 42.7383 98.4C42.4676 98.1947 42.1829 98.0453 41.8843 97.952C41.5856 97.8493 41.2823 97.798 40.9743 97.798C40.4329 97.798 40.0129 97.91 39.7143 98.134C39.4249 98.358 39.2803 98.6613 39.2803 99.044C39.2803 99.3333 39.3689 99.5667 39.5463 99.744C39.7329 99.9213 40.0223 100.057 40.4143 100.15L41.6323 100.43C42.2389 100.57 42.6916 100.78 42.9903 101.06C43.2889 101.331 43.4383 101.699 43.4383 102.166C43.4383 102.763 43.2003 103.239 42.7243 103.594C42.2576 103.939 41.6229 104.112 40.8203 104.112ZM48.2478 104.112C47.5478 104.112 46.9458 103.972 46.4418 103.692C45.9378 103.412 45.5505 103.011 45.2798 102.488C45.0092 101.965 44.8738 101.345 44.8738 100.626C44.8738 99.9167 45.0092 99.3007 45.2798 98.778C45.5505 98.246 45.9238 97.8307 46.3998 97.532C46.8852 97.2333 47.4405 97.084 48.0658 97.084C48.5232 97.084 48.9245 97.1633 49.2698 97.322C49.6245 97.4713 49.9232 97.6907 50.1658 97.98C50.4178 98.26 50.6092 98.6053 50.7398 99.016C50.8705 99.4173 50.9358 99.8747 50.9358 100.388C50.9358 100.519 50.8985 100.617 50.8238 100.682C50.7585 100.747 50.6652 100.78 50.5438 100.78H45.4898V100.15H50.4038L50.1798 100.332C50.1798 99.7907 50.1005 99.3333 49.9418 98.96C49.7832 98.5773 49.5452 98.2833 49.2278 98.078C48.9198 97.8727 48.5372 97.77 48.0798 97.77C47.5665 97.77 47.1325 97.8913 46.7778 98.134C46.4232 98.3673 46.1572 98.694 45.9798 99.114C45.8025 99.5247 45.7138 100.001 45.7138 100.542V100.612C45.7138 101.508 45.9332 102.199 46.3718 102.684C46.8105 103.16 47.4265 103.398 48.2198 103.398C48.5652 103.398 48.8965 103.351 49.2138 103.258C49.5405 103.165 49.8578 103.006 50.1658 102.782C50.2592 102.717 50.3478 102.684 50.4318 102.684C50.5252 102.684 50.5998 102.707 50.6558 102.754C50.7212 102.801 50.7632 102.861 50.7818 102.936C50.8098 103.001 50.8052 103.076 50.7678 103.16C50.7398 103.235 50.6792 103.305 50.5858 103.37C50.2872 103.613 49.9278 103.799 49.5078 103.93C49.0878 104.051 48.6678 104.112 48.2478 104.112ZM53.1106 104.084C52.9706 104.084 52.8633 104.047 52.7886 103.972C52.714 103.897 52.6766 103.79 52.6766 103.65V97.56C52.6766 97.4107 52.714 97.2987 52.7886 97.224C52.8633 97.1493 52.9706 97.112 53.1106 97.112C53.2413 97.112 53.3393 97.1493 53.4046 97.224C53.4793 97.2987 53.5166 97.4107 53.5166 97.56V98.806H53.3766C53.5446 98.2553 53.8433 97.8307 54.2726 97.532C54.7113 97.2333 55.234 97.0793 55.8406 97.07C55.9526 97.0607 56.046 97.084 56.1206 97.14C56.1953 97.196 56.2326 97.2847 56.2326 97.406C56.242 97.5367 56.214 97.6393 56.1486 97.714C56.0833 97.7793 55.976 97.8213 55.8266 97.84L55.6306 97.854C54.968 97.9193 54.4546 98.1387 54.0906 98.512C53.7266 98.8853 53.5446 99.3893 53.5446 100.024V103.65C53.5446 103.79 53.5073 103.897 53.4326 103.972C53.3673 104.047 53.26 104.084 53.1106 104.084ZM60.3356 104.084C60.1956 104.084 60.079 104.047 59.9856 103.972C59.8923 103.897 59.8083 103.785 59.7336 103.636L57.2136 97.756C57.167 97.644 57.1483 97.5413 57.1576 97.448C57.1763 97.3453 57.2183 97.266 57.2836 97.21C57.3583 97.1447 57.461 97.112 57.5916 97.112C57.713 97.112 57.8016 97.14 57.8576 97.196C57.923 97.252 57.979 97.3407 58.0256 97.462L60.5176 103.482H60.1676L62.6736 97.462C62.7203 97.3407 62.7763 97.252 62.8416 97.196C62.907 97.14 63.0003 97.112 63.1216 97.112C63.243 97.112 63.3316 97.1447 63.3876 97.21C63.453 97.266 63.4903 97.3407 63.4996 97.434C63.509 97.5273 63.4903 97.63 63.4436 97.742L60.9236 103.636C60.8676 103.785 60.7883 103.897 60.6856 103.972C60.583 104.047 60.4663 104.084 60.3356 104.084ZM67.8806 104.112C67.1806 104.112 66.5786 103.972 66.0746 103.692C65.5706 103.412 65.1833 103.011 64.9126 102.488C64.642 101.965 64.5066 101.345 64.5066 100.626C64.5066 99.9167 64.642 99.3007 64.9126 98.778C65.1833 98.246 65.5566 97.8307 66.0326 97.532C66.518 97.2333 67.0733 97.084 67.6986 97.084C68.156 97.084 68.5573 97.1633 68.9026 97.322C69.2573 97.4713 69.556 97.6907 69.7986 97.98C70.0506 98.26 70.242 98.6053 70.3726 99.016C70.5033 99.4173 70.5686 99.8747 70.5686 100.388C70.5686 100.519 70.5313 100.617 70.4566 100.682C70.3913 100.747 70.298 100.78 70.1766 100.78H65.1226V100.15H70.0366L69.8126 100.332C69.8126 99.7907 69.7333 99.3333 69.5746 98.96C69.416 98.5773 69.178 98.2833 68.8606 98.078C68.5526 97.8727 68.17 97.77 67.7126 97.77C67.1993 97.77 66.7653 97.8913 66.4106 98.134C66.056 98.3673 65.79 98.694 65.6126 99.114C65.4353 99.5247 65.3466 100.001 65.3466 100.542V100.612C65.3466 101.508 65.566 102.199 66.0046 102.684C66.4433 103.16 67.0593 103.398 67.8526 103.398C68.198 103.398 68.5293 103.351 68.8466 103.258C69.1733 103.165 69.4906 103.006 69.7986 102.782C69.892 102.717 69.9806 102.684 70.0646 102.684C70.158 102.684 70.2326 102.707 70.2886 102.754C70.354 102.801 70.396 102.861 70.4146 102.936C70.4426 103.001 70.438 103.076 70.4006 103.16C70.3726 103.235 70.312 103.305 70.2186 103.37C69.92 103.613 69.5606 103.799 69.1406 103.93C68.7206 104.051 68.3006 104.112 67.8806 104.112ZM76.2708 104.084C76.1308 104.084 76.0235 104.047 75.9488 103.972C75.8741 103.897 75.8368 103.79 75.8368 103.65V97.56C75.8368 97.4107 75.8741 97.2987 75.9488 97.224C76.0235 97.1493 76.1308 97.112 76.2708 97.112C76.4015 97.112 76.4995 97.1493 76.5648 97.224C76.6395 97.2987 76.6768 97.4107 76.6768 97.56V98.876L76.5228 98.792C76.7095 98.232 77.0268 97.8073 77.4748 97.518C77.9321 97.2287 78.4548 97.084 79.0428 97.084C79.5841 97.084 80.0321 97.182 80.3868 97.378C80.7508 97.5647 81.0215 97.854 81.1988 98.246C81.3761 98.638 81.4648 99.128 81.4648 99.716V103.65C81.4648 103.79 81.4275 103.897 81.3528 103.972C81.2781 104.047 81.1755 104.084 81.0448 104.084C80.9048 104.084 80.7975 104.047 80.7228 103.972C80.6481 103.897 80.6108 103.79 80.6108 103.65V99.786C80.6108 99.1047 80.4755 98.61 80.2048 98.302C79.9341 97.9847 79.5048 97.826 78.9168 97.826C78.2448 97.826 77.7035 98.036 77.2928 98.456C76.8915 98.8667 76.6908 99.422 76.6908 100.122V103.65C76.6908 103.939 76.5508 104.084 76.2708 104.084ZM85.7708 104.112C85.3134 104.112 84.9028 104.023 84.5388 103.846C84.1841 103.669 83.8994 103.426 83.6848 103.118C83.4794 102.81 83.3768 102.465 83.3768 102.082C83.3768 101.578 83.5028 101.181 83.7548 100.892C84.0068 100.603 84.4314 100.402 85.0288 100.29C85.6261 100.169 86.4474 100.108 87.4928 100.108H88.0948V100.738H87.5068C86.6668 100.738 86.0088 100.775 85.5328 100.85C85.0661 100.915 84.7394 101.041 84.5528 101.228C84.3661 101.415 84.2728 101.676 84.2728 102.012C84.2728 102.432 84.4174 102.773 84.7068 103.034C84.9961 103.295 85.3881 103.426 85.8828 103.426C86.2841 103.426 86.6341 103.333 86.9328 103.146C87.2408 102.95 87.4834 102.684 87.6608 102.348C87.8381 102.012 87.9268 101.629 87.9268 101.2V99.604C87.9268 98.9787 87.8008 98.526 87.5488 98.246C87.2968 97.9567 86.8954 97.812 86.3448 97.812C85.9901 97.812 85.6448 97.8587 85.3088 97.952C84.9821 98.0453 84.6321 98.1947 84.2588 98.4C84.1561 98.456 84.0628 98.4747 83.9788 98.456C83.9041 98.4373 83.8434 98.4 83.7968 98.344C83.7594 98.288 83.7314 98.2227 83.7128 98.148C83.7034 98.064 83.7174 97.9847 83.7548 97.91C83.7921 97.8353 83.8574 97.7747 83.9508 97.728C84.3428 97.5133 84.7394 97.3547 85.1408 97.252C85.5514 97.14 85.9481 97.084 86.3308 97.084C86.8814 97.084 87.3341 97.1773 87.6888 97.364C88.0528 97.5507 88.3188 97.8307 88.4868 98.204C88.6641 98.5773 88.7528 99.058 88.7528 99.646V103.65C88.7528 103.79 88.7201 103.897 88.6548 103.972C88.5894 104.047 88.4914 104.084 88.3608 104.084C88.2301 104.084 88.1274 104.047 88.0528 103.972C87.9781 103.897 87.9408 103.79 87.9408 103.65V102.362H88.0808C87.9968 102.726 87.8474 103.039 87.6328 103.3C87.4181 103.561 87.1521 103.762 86.8348 103.902C86.5174 104.042 86.1628 104.112 85.7708 104.112ZM95.1566 104C95.0072 104 94.8906 103.958 94.8066 103.874C94.7226 103.79 94.6806 103.669 94.6806 103.51V94.62C94.6806 94.4613 94.7226 94.34 94.8066 94.256C94.8906 94.172 95.0072 94.13 95.1566 94.13H98.4466C99.1279 94.13 99.7019 94.2327 100.169 94.438C100.635 94.634 100.995 94.9233 101.247 95.306C101.499 95.6887 101.625 96.16 101.625 96.72C101.625 97.336 101.438 97.8493 101.065 98.26C100.701 98.6707 100.206 98.9413 99.5806 99.072V98.876C100.281 98.9507 100.831 99.2027 101.233 99.632C101.643 100.052 101.849 100.612 101.849 101.312C101.849 102.189 101.569 102.857 101.009 103.314C100.449 103.771 99.6552 104 98.6286 104H95.1566ZM95.5206 103.272H98.5586C99.3706 103.272 99.9772 103.113 100.379 102.796C100.78 102.469 100.981 101.979 100.981 101.326C100.981 100.654 100.78 100.159 100.379 99.842C99.9772 99.5247 99.3706 99.366 98.5586 99.366H95.5206V103.272ZM95.5206 98.638H98.3486C99.1326 98.638 99.7299 98.4793 100.141 98.162C100.551 97.8353 100.757 97.364 100.757 96.748C100.757 96.132 100.551 95.6653 100.141 95.348C99.7299 95.0213 99.1326 94.858 98.3486 94.858H95.5206V98.638ZM106.859 104.112C106.159 104.112 105.557 103.972 105.053 103.692C104.549 103.412 104.162 103.011 103.891 102.488C103.62 101.965 103.485 101.345 103.485 100.626C103.485 99.9167 103.62 99.3007 103.891 98.778C104.162 98.246 104.535 97.8307 105.011 97.532C105.496 97.2333 106.052 97.084 106.677 97.084C107.134 97.084 107.536 97.1633 107.881 97.322C108.236 97.4713 108.534 97.6907 108.777 97.98C109.029 98.26 109.22 98.6053 109.351 99.016C109.482 99.4173 109.547 99.8747 109.547 100.388C109.547 100.519 109.51 100.617 109.435 100.682C109.37 100.747 109.276 100.78 109.155 100.78H104.101V100.15H109.015L108.791 100.332C108.791 99.7907 108.712 99.3333 108.553 98.96C108.394 98.5773 108.156 98.2833 107.839 98.078C107.531 97.8727 107.148 97.77 106.691 97.77C106.178 97.77 105.744 97.8913 105.389 98.134C105.034 98.3673 104.768 98.694 104.591 99.114C104.414 99.5247 104.325 100.001 104.325 100.542V100.612C104.325 101.508 104.544 102.199 104.983 102.684C105.422 103.16 106.038 103.398 106.831 103.398C107.176 103.398 107.508 103.351 107.825 103.258C108.152 103.165 108.469 103.006 108.777 102.782C108.87 102.717 108.959 102.684 109.043 102.684C109.136 102.684 109.211 102.707 109.267 102.754C109.332 102.801 109.374 102.861 109.393 102.936C109.421 103.001 109.416 103.076 109.379 103.16C109.351 103.235 109.29 103.305 109.197 103.37C108.898 103.613 108.539 103.799 108.119 103.93C107.699 104.051 107.279 104.112 106.859 104.112ZM113.388 104.112C112.931 104.112 112.52 104.023 112.156 103.846C111.801 103.669 111.517 103.426 111.302 103.118C111.097 102.81 110.994 102.465 110.994 102.082C110.994 101.578 111.12 101.181 111.372 100.892C111.624 100.603 112.049 100.402 112.646 100.29C113.243 100.169 114.065 100.108 115.11 100.108H115.712V100.738H115.124C114.284 100.738 113.626 100.775 113.15 100.85C112.683 100.915 112.357 101.041 112.17 101.228C111.983 101.415 111.89 101.676 111.89 102.012C111.89 102.432 112.035 102.773 112.324 103.034C112.613 103.295 113.005 103.426 113.5 103.426C113.901 103.426 114.251 103.333 114.55 103.146C114.858 102.95 115.101 102.684 115.278 102.348C115.455 102.012 115.544 101.629 115.544 101.2V99.604C115.544 98.9787 115.418 98.526 115.166 98.246C114.914 97.9567 114.513 97.812 113.962 97.812C113.607 97.812 113.262 97.8587 112.926 97.952C112.599 98.0453 112.249 98.1947 111.876 98.4C111.773 98.456 111.68 98.4747 111.596 98.456C111.521 98.4373 111.461 98.4 111.414 98.344C111.377 98.288 111.349 98.2227 111.33 98.148C111.321 98.064 111.335 97.9847 111.372 97.91C111.409 97.8353 111.475 97.7747 111.568 97.728C111.96 97.5133 112.357 97.3547 112.758 97.252C113.169 97.14 113.565 97.084 113.948 97.084C114.499 97.084 114.951 97.1773 115.306 97.364C115.67 97.5507 115.936 97.8307 116.104 98.204C116.281 98.5773 116.37 99.058 116.37 99.646V103.65C116.37 103.79 116.337 103.897 116.272 103.972C116.207 104.047 116.109 104.084 115.978 104.084C115.847 104.084 115.745 104.047 115.67 103.972C115.595 103.897 115.558 103.79 115.558 103.65V102.362H115.698C115.614 102.726 115.465 103.039 115.25 103.3C115.035 103.561 114.769 103.762 114.452 103.902C114.135 104.042 113.78 104.112 113.388 104.112ZM120.996 104.112C120.455 104.112 120.002 104.014 119.638 103.818C119.284 103.622 119.018 103.328 118.84 102.936C118.663 102.544 118.574 102.059 118.574 101.48V97.56C118.574 97.4107 118.612 97.2987 118.686 97.224C118.761 97.1493 118.868 97.112 119.008 97.112C119.139 97.112 119.242 97.1493 119.316 97.224C119.391 97.2987 119.428 97.4107 119.428 97.56V101.438C119.428 102.091 119.564 102.581 119.834 102.908C120.105 103.225 120.53 103.384 121.108 103.384C121.743 103.384 122.256 103.174 122.648 102.754C123.04 102.325 123.236 101.765 123.236 101.074V97.56C123.236 97.4107 123.274 97.2987 123.348 97.224C123.423 97.1493 123.53 97.112 123.67 97.112C123.801 97.112 123.904 97.1493 123.978 97.224C124.053 97.2987 124.09 97.4107 124.09 97.56V103.65C124.09 103.939 123.955 104.084 123.684 104.084C123.554 104.084 123.451 104.047 123.376 103.972C123.302 103.897 123.264 103.79 123.264 103.65V102.264L123.432 102.362C123.255 102.931 122.947 103.365 122.508 103.664C122.07 103.963 121.566 104.112 120.996 104.112ZM128.903 104.112C128.399 104.112 127.979 104.019 127.643 103.832C127.307 103.645 127.055 103.379 126.887 103.034C126.719 102.679 126.635 102.245 126.635 101.732V97.896H125.599C125.477 97.896 125.379 97.868 125.305 97.812C125.23 97.7467 125.193 97.658 125.193 97.546C125.193 97.4433 125.23 97.364 125.305 97.308C125.379 97.2427 125.477 97.21 125.599 97.21H126.635V95.46C126.635 95.3107 126.672 95.2033 126.747 95.138C126.821 95.0633 126.929 95.026 127.069 95.026C127.199 95.026 127.302 95.0633 127.377 95.138C127.451 95.2033 127.489 95.3107 127.489 95.46V97.21H129.379C129.509 97.21 129.607 97.2427 129.673 97.308C129.738 97.364 129.771 97.4433 129.771 97.546C129.771 97.658 129.738 97.7467 129.673 97.812C129.607 97.868 129.509 97.896 129.379 97.896H127.489V101.62C127.489 102.189 127.605 102.623 127.839 102.922C128.072 103.221 128.459 103.37 129.001 103.37C129.187 103.37 129.341 103.351 129.463 103.314C129.593 103.267 129.701 103.244 129.785 103.244C129.85 103.244 129.906 103.272 129.953 103.328C130.009 103.384 130.037 103.473 130.037 103.594C130.037 103.669 130.018 103.743 129.981 103.818C129.953 103.893 129.897 103.939 129.813 103.958C129.71 103.995 129.57 104.028 129.393 104.056C129.215 104.093 129.052 104.112 128.903 104.112ZM132.54 106.604C132.428 106.604 132.34 106.571 132.274 106.506C132.209 106.45 132.172 106.371 132.162 106.268C132.162 106.175 132.181 106.077 132.218 105.974L133.184 103.776V104.168L130.44 97.756C130.394 97.644 130.375 97.5413 130.384 97.448C130.403 97.3453 130.445 97.266 130.51 97.21C130.585 97.1447 130.688 97.112 130.818 97.112C130.94 97.112 131.028 97.14 131.084 97.196C131.15 97.252 131.206 97.3407 131.252 97.462L133.744 103.496H133.394L135.886 97.462C135.942 97.3313 136.003 97.2427 136.068 97.196C136.134 97.14 136.227 97.112 136.348 97.112C136.47 97.112 136.558 97.1447 136.614 97.21C136.68 97.266 136.717 97.3407 136.726 97.434C136.736 97.5273 136.717 97.63 136.67 97.742L133.016 106.268C132.96 106.399 132.895 106.487 132.82 106.534C132.755 106.581 132.662 106.604 132.54 106.604Z" fill="white"/>
</svg>
