<svg xmlns="http://www.w3.org/2000/svg" viewBox="0.029166672378778458 12.600000381469727 131.02084350585938 44.95000076293945" data-asc="0.95" width="131.02084350585938" height="44.95000076293945"><defs/><g fill="#ffffff"><g transform="translate(0, 0)"><path d="M3.75 46.15Q3.10 45.60 2.85 44.80Q2.60 44 2.60 43.05Q2.60 42.45 2.67 41.83Q2.75 41.20 2.85 40.55Q3.25 38.55 4.22 35.80Q5.20 33.05 6.48 30.05Q7.75 27.05 9.07 24.22Q10.40 21.40 11.48 19.22Q12.55 17.05 13.10 16Q13.30 15.60 13.48 15.25Q13.65 14.90 13.85 14.60L12.05 14.85Q9.80 15.15 7.43 15.80Q5.05 16.45 3.17 17.47Q1.30 18.50 0.45 19.95Q0.40 20.10 0.25 20.10Q0.15 20.10 0.07 19.90Q0 19.70 0.05 19.45Q0.55 18.15 1.30 16.95Q2.05 15.75 2.75 15.05Q3.85 13.90 5.75 13.40Q7.65 12.90 9.68 12.75Q11.70 12.60 13.15 12.60L23 12.60Q26.45 12.60 28.53 13.65Q30.60 14.70 31.50 16.42Q32.40 18.15 32.20 20.10Q32 22.20 31 23.75Q30 25.30 28.53 26.38Q27.05 27.45 25.48 28.07Q23.90 28.70 22.55 29Q26.75 29.80 28.55 31.75Q30.35 33.70 30.35 36.40Q30.35 38.55 29.33 40.42Q28.30 42.30 26.55 43.80Q25.05 45.10 22.60 46.13Q20.15 47.15 17.30 47.75Q14.45 48.35 11.65 48.35Q9.30 48.35 7.20 47.83Q5.10 47.30 3.75 46.15M9.85 46.15Q10.55 46.25 11.25 46.30Q11.95 46.35 12.65 46.35Q15.10 46.35 17.45 45.63Q19.80 44.90 21.58 43.30Q23.35 41.70 24.10 39.10Q24.55 37.65 24.55 36.15Q24.55 33.80 23.38 31.92Q22.20 30.05 19.70 29.75Q19.15 29.90 18.05 30.10Q16.95 30.30 15.75 30.45Q14.55 30.60 13.70 30.60Q12.90 30.60 12.90 30.25Q12.90 29.95 13.35 29.52Q13.80 29.10 14.35 28.77Q14.90 28.45 15.25 28.40Q16.15 28.25 17.35 28.25Q18 28.25 18.68 28.30Q19.35 28.35 20.10 28.45Q21.70 27.95 22.75 27.10Q23.80 26.25 24.55 25.50Q25.75 24.25 26.40 22.63Q27.05 21 27.05 19.45Q27.05 17.40 26.08 16.27Q25.10 15.15 23.50 14.65Q21.90 14.15 20.05 14.10Q19.15 15.30 18.18 16.92Q17.20 18.55 16.35 20.25Q15.50 21.95 14.85 23.40Q13.45 26.40 11.93 29.95Q10.40 33.50 9.40 36.85Q8.90 38.40 8.43 40.17Q7.95 41.95 7.95 43.35Q7.95 44.45 8.35 45.20Q8.75 45.95 9.85 46.15ZM43.90 46.80Q41.60 48 39.05 48Q36.90 48 35.05 46.95Q33.20 45.90 32.55 43.60Q32.25 42.55 32.25 41.40Q32.25 39.50 32.92 37.48Q33.60 35.45 34.70 33.75Q36.40 31.10 39 29.35Q41.60 27.60 44.75 27.60Q47.10 27.60 48.40 28.80Q49.70 30 49.70 31.60Q49.70 33.50 48.42 34.92Q47.15 36.35 45.10 37.10Q44.10 37.45 42.98 37.63Q41.85 37.80 40.85 37.80Q38.80 37.80 37.70 37.25Q36.75 39.70 36.75 41.75Q36.75 43.60 37.60 44.77Q38.45 45.95 40.30 45.95Q41.85 45.95 43.38 45.10Q44.90 44.25 46.23 43Q47.55 41.75 48.45 40.60Q49.15 39.75 49.65 39Q50.15 38.25 50.70 37.27Q51.25 36.30 52 34.85Q52.20 34.50 52.35 34.50Q52.65 34.50 52.65 35.30Q52.65 35.75 52.53 36.27Q52.40 36.80 52.10 37.35Q51.40 38.60 50.42 40.08Q49.45 41.55 48.45 42.90Q47.55 44.10 46.40 45.10Q45.25 46.10 43.90 46.80M39.35 36.15Q39.60 36.30 39.90 36.35Q40.20 36.40 40.50 36.40Q41.50 36.40 42.50 35.92Q43.50 35.45 44.20 34.95Q45.35 34.15 46.15 33.05Q46.95 31.95 47.05 30.55Q47.10 29.95 46.78 29.52Q46.45 29.10 45.65 29.10Q45.25 29.10 44.65 29.25Q43.85 29.45 43.05 30Q42.25 30.55 41.50 31.30Q41.25 31.55 40.63 32.27Q40 33 39.45 33.88Q38.90 34.75 38.90 35.40Q38.90 35.95 39.35 36.15ZM65.40 47.80Q63.85 47.80 63.28 46.60Q62.70 45.40 62.70 43.65Q62.70 42.05 63 40.50Q63.15 39.80 63.33 39.08Q63.50 38.35 63.75 37.55Q62.90 39.10 61.98 40.55Q61.05 42 60.10 43.10Q58.50 45.05 56.73 46.35Q54.95 47.65 53.20 47.65Q51.80 47.65 50.83 46.63Q49.85 45.60 49.85 43.05Q49.85 40.45 50.75 37.70Q51.65 34.95 53.28 32.58Q54.90 30.20 57.13 28.75Q59.35 27.30 62 27.30Q62.85 27.30 63.85 27.55Q64.85 27.80 65.70 28.47Q66.55 29.15 66.85 30.35Q66.90 30.25 66.98 30.20Q67.05 30.15 67.10 30.10Q67.80 29 68.70 28.25Q69.60 27.50 70.70 27.50Q71.25 27.50 72.25 27.55Q73.25 27.60 73.70 27.55Q73.45 27.75 73.03 28.35Q72.60 28.95 72.25 29.57Q71.90 30.20 71.70 30.55Q70.35 33.15 69.25 35.70Q68.15 38.25 67.55 40.60Q67.40 41.10 67.35 41.52Q67.30 41.95 67.30 42.35Q67.30 43.65 68.15 43.65Q68.95 43.65 70.15 42.65Q71.90 41.25 73.23 39.15Q74.55 37.05 75.55 35.10Q75.75 34.75 75.90 34.75Q76.20 34.75 76.20 35.60Q76.20 36 76.08 36.50Q75.95 37 75.70 37.45Q75 38.65 73.88 40.40Q72.75 42.15 71.35 43.83Q69.95 45.50 68.43 46.65Q66.90 47.80 65.40 47.80M55.45 43.45Q55.60 43.50 55.90 43.50Q56.85 43.50 57.95 42.70Q59.05 41.90 60.15 40.63Q61.25 39.35 62.10 38.05Q64.30 34.55 65.35 32.80Q66.40 31.05 66.55 30.80Q66.30 29.95 65.68 29.55Q65.05 29.15 64.20 29.15Q63.10 29.15 61.88 29.75Q60.65 30.35 59.80 31.20Q58.50 32.50 57.33 34.55Q56.15 36.60 55.43 38.60Q54.70 40.60 54.70 41.95Q54.70 43.20 55.45 43.45ZM76.25 47.80Q74.95 47.80 74.13 46.58Q73.30 45.35 73.50 42.75Q73.60 41.65 74.00 39.95Q74.40 38.25 75.08 36.27Q75.75 34.30 76.60 32.42Q77.45 30.55 78.45 29.10Q79.00 28.35 79.58 28.17Q80.15 28 81.70 28L84.10 28Q83.25 29.20 82.30 31Q81.35 32.80 80.55 34.58Q79.75 36.35 79.30 37.55Q79.20 37.90 78.90 38.77Q78.60 39.65 78.35 40.70Q78.10 41.75 78.10 42.65Q78.10 43.45 78.40 44Q78.70 44.55 79.50 44.55Q80.45 44.50 81.55 43.35Q82.65 42.20 83.75 40.40Q84.85 38.60 85.93 36.63Q87.00 34.65 87.88 32.92Q88.75 31.20 89.35 30.25Q90.10 29.10 90.95 28.22Q91.80 27.35 92.90 27.35Q93.30 27.35 93.98 27.38Q94.65 27.40 95.33 27.40Q96.00 27.40 96.25 27.35Q95.95 27.55 95.55 28.15Q95.15 28.75 94.78 29.38Q94.40 30 94.20 30.40Q92.90 33 91.68 35.63Q90.45 38.25 89.85 40.60Q89.60 41.50 89.60 42.15Q89.60 43.65 90.60 43.65Q91.30 43.65 92.60 42.65Q93.60 41.85 94.55 40.60Q95.60 39.30 96.50 37.80Q97.40 36.30 98.05 35.05Q98.25 34.70 98.40 34.70Q98.70 34.70 98.70 35.50Q98.70 35.90 98.58 36.42Q98.45 36.95 98.15 37.45Q97.45 38.65 96.50 40.08Q95.55 41.50 94.55 42.90Q93.85 43.80 92.70 44.95Q91.55 46.10 90.28 46.95Q89.00 47.80 87.80 47.80Q87.10 47.80 86.50 47.52Q85.90 47.25 85.50 46.45Q85.00 45.40 85.00 43.60Q85.00 43.05 85.05 42.42Q85.10 41.80 85.20 41.15Q84.45 42.20 83.63 43.10Q82.80 44 81.95 44.90Q80.05 46.80 78.73 47.30Q77.40 47.80 76.25 47.80ZM100.30 47.80Q98.85 47.80 98.10 46.65Q97.75 46.10 97.60 45.35Q97.45 44.60 97.45 43.80Q97.45 43 97.55 42.17Q97.65 41.35 97.80 40.55Q98.05 39.25 98.38 38.17Q98.70 37.10 99.05 36.10L99.05 36.05Q98.65 36.80 98.05 37.67Q97.45 38.55 97.20 38.95Q96.85 39.50 96.65 39.50Q96.45 39.50 96.45 39.05Q96.45 38.05 97.05 36.85Q97.45 36.05 98.15 34.77Q98.85 33.50 99.60 32Q100.35 30.50 100.90 29.10L97.55 29.10Q97.30 29.10 97.45 28.70Q97.60 28.30 97.90 27.92Q98.20 27.55 98.35 27.55L102.15 27.55Q102.70 26.25 103.43 24.75Q104.15 23.25 105.08 21.92Q106.00 20.60 107.10 19.75Q108.20 18.90 109.45 18.90Q110.00 18.90 110.83 18.90Q111.65 18.90 111.85 18.85Q110.80 19.55 109.40 21.63Q108.00 23.70 106.35 27.55L111.40 27.55Q111.55 27.55 111.30 27.92Q111.05 28.30 110.68 28.70Q110.30 29.10 109.95 29.10L105.65 29.10Q105.00 30.75 104.23 32.70Q103.45 34.65 102.83 36.52Q102.20 38.40 101.90 39.95Q101.70 40.90 101.70 41.70Q101.70 43.60 102.90 43.60Q103.70 43.60 104.80 42.80Q105.90 42 107.00 40.60Q108.00 39.30 108.93 37.80Q109.85 36.30 110.50 35.05Q110.70 34.70 110.85 34.70Q111.15 34.70 111.15 35.50Q111.15 35.90 111.03 36.42Q110.90 36.95 110.60 37.45Q109.90 38.65 108.95 40.08Q108.00 41.50 107.00 42.90Q106.30 43.80 105.18 44.95Q104.05 46.10 102.78 46.95Q101.50 47.80 100.30 47.80ZM110.35 57.55Q109.10 57.55 107.73 57.17Q106.35 56.80 105.43 55.90Q104.50 55 104.50 53.50Q104.50 52.45 105.15 51.55Q105.80 50.65 106.95 50.65Q107.65 50.65 108.25 51.02Q108.85 51.40 109.05 51.95Q108.95 52 108.75 52.25Q108.55 52.50 108.50 52.60Q108.15 53.30 108.15 54.05Q108.15 55 108.83 55.58Q109.50 56.15 110.55 56.15Q111.90 56.15 113.35 55.15Q114.95 54 115.88 52.17Q116.80 50.35 117.35 48.90L120.20 41.30Q119.30 42.40 118.33 43.52Q117.35 44.65 117.10 44.90Q115.20 46.80 113.70 47.30Q112.20 47.80 111.05 47.80Q109.85 47.80 109.03 46.75Q108.20 45.70 108.20 43.70Q108.20 42.70 108.50 41.15Q108.80 39.60 109.35 37.83Q109.90 36.05 110.63 34.33Q111.35 32.60 112.20 31.25Q113.50 29.20 115.10 28.60Q116.70 28 119.15 28Q119.35 28 119.35 28.20Q119.35 28.40 119.05 28.70Q118.35 29.30 117.35 30.80Q116.35 32.30 115.43 34.10Q114.50 35.90 113.90 37.55Q113.50 38.70 113.13 40.25Q112.75 41.80 112.75 42.95Q112.75 43.75 112.98 44.23Q113.20 44.70 113.70 44.70Q114.50 44.70 115.90 43.50Q118.00 41.75 119.70 39.20Q121.40 36.65 122.60 33.90Q123.30 32.30 123.75 31.18Q124.20 30.05 124.75 29.35Q125.30 28.65 126.30 28.32Q127.30 28 129 28L131.05 28Q130.10 28.60 129.15 30.22Q128.20 31.85 127.35 34.05Q126.70 35.65 126.03 37.55Q125.35 39.45 124.65 41.40Q124.05 43.20 123.35 45.33Q122.65 47.45 121.75 49.48Q120.85 51.50 119.65 53Q117.95 55.10 115.50 56.33Q113.05 57.55 110.35 57.55Z"/></g></g></svg>